<svg width="256" height="256" viewBox="0 0 256 256" fill="none" xmlns="http://www.w3.org/2000/svg">
  <ellipse cx="128" cy="223" rx="127" ry="28" fill="#354E57"/>
  <path d="M0 2L241 9L221 229L41 226L0 188V2Z" fill="#1D7F99"/>
  <path d="M0 2L241 9L221 229L41 226L0 188V2Z" fill="url(#paint0_linear_1_2)" fill-opacity=".32"/>
  <path d="M73.5 56.5L215.5 58.5L213.5 80.5L72.5 80L73.5 56.5Z" fill="#8FD4E9"/>
  <path d="M69.5 116L210 118.5L207.5 140L68 137L69.5 116Z" fill="#8FD4E9"/>
  <path d="M65.5 173L204.5 176L201.5 197.5L64 194L65.5 173Z" fill="#8FD4E9"/>
  <path d="M0 35L4.5 35.5L3.5 49L0 49.5V35Z" fill="#8FD4E9"/>
  <path d="M0 72L3 72.5L2.5 86.5L0 86.5V72Z" fill="#8FD4E9"/>
  <path d="M0 111L1.5 111L1 125L0 125V111Z" fill="#8FD4E9"/>
  <path d="M0 188L41 226L221 229L221.8 220.2L43.6 217.3L0 176.2V188Z" fill="#185E72" fill-opacity=".72"/>
  <defs>
    <linearGradient id="paint0_linear_1_2" x1="237" y1="12" x2="31" y2="226" gradientUnits="userSpaceOnUse">
      <stop stop-color="#2399B5"/>
      <stop offset="1" stop-color="#105B70"/>
    </linearGradient>
  </defs>
</svg>
